<svg width="21" height="14" viewBox="0 0 21 14" fill="none" xmlns="http://www.w3.org/2000/svg">
<path d="M14.456 0.244674C14.372 0.160699 14.2581 0.113525 14.1393 0.113525C14.0205 0.113525 13.9066 0.160699 13.8226 0.244674L13.1892 0.878048C13.1053 0.962047 13.0581 1.07596 13.0581 1.19473C13.0581 1.31351 13.1053 1.42742 13.1892 1.51142L17.6144 5.93653H1.4118C1.293 5.93653 1.17907 5.98372 1.09506 6.06773C1.01106 6.15173 0.963867 6.26566 0.963867 6.38446V7.28032C0.963867 7.39912 1.01106 7.51306 1.09506 7.59706C1.17907 7.68106 1.293 7.72826 1.4118 7.72826H17.6144L13.1892 12.1534C13.1053 12.2374 13.0581 12.3513 13.0581 12.4701C13.0581 12.5888 13.1053 12.7027 13.1892 12.7867L13.8226 13.4201C13.9066 13.5041 14.0205 13.5513 14.1393 13.5513C14.2581 13.5513 14.372 13.5041 14.456 13.4201L20.727 7.14908C20.811 7.06508 20.8582 6.95117 20.8582 6.83239C20.8582 6.71362 20.811 6.59971 20.727 6.51571L14.456 0.244674Z" fill="#2C1C12" fill-opacity="0.9"/>
</svg>
