<svg width="21" height="14" viewBox="0 0 21 14" fill="none" xmlns="http://www.w3.org/2000/svg">
<path d="M6.54401 0.244674C6.62801 0.160699 6.74192 0.113525 6.86069 0.113525C6.97947 0.113525 7.09338 0.160699 7.17738 0.244674L7.81075 0.878048C7.89473 0.962047 7.9419 1.07596 7.9419 1.19473C7.9419 1.31351 7.89473 1.42742 7.81075 1.51142L3.38564 5.93653H19.5882C19.707 5.93653 19.8209 5.98372 19.9049 6.06773C19.9889 6.15173 20.0361 6.26566 20.0361 6.38446V7.28032C20.0361 7.39912 19.9889 7.51306 19.9049 7.59706C19.8209 7.68106 19.707 7.72826 19.5882 7.72826H3.38564L7.81075 12.1534C7.89473 12.2374 7.9419 12.3513 7.9419 12.4701C7.9419 12.5888 7.89473 12.7027 7.81075 12.7867L7.17738 13.4201C7.09338 13.5041 6.97947 13.5513 6.86069 13.5513C6.74192 13.5513 6.62801 13.5041 6.54401 13.4201L0.272972 7.14908C0.188999 7.06508 0.141823 6.95117 0.141823 6.83239C0.141823 6.71362 0.188999 6.59971 0.272972 6.51571L6.54401 0.244674Z" fill="#2C1C12" fill-opacity="0.9"/>
</svg>
