<svg width="96" height="96" viewBox="0 0 96 96" fill="none" xmlns="http://www.w3.org/2000/svg">
<circle cx="48" cy="48" r="48" fill="#FFDE43"/>
<path d="M17.6882 57.1559C16.7175 56.9449 16.2532 56.2274 16.4643 55.2567C16.8863 53.3997 20.8957 44.0303 21.36 41.8356C21.571 40.8649 22.2463 40.3163 23.217 40.4429C24.9896 40.6961 26.72 40.9915 28.3238 41.7512C31.0671 43.0596 32.08 45.2964 31.3203 48.2085C30.4762 51.6271 28.366 54.6658 25.1162 56.0586C22.1197 57.1981 19.7984 57.578 17.6882 57.1559ZM21.4866 53.8639C24.9474 53.5263 26.8044 51.2051 27.9861 48.2085C28.9568 45.8029 27.9439 44.5367 25.1162 43.9881C24.5675 43.8614 24.1033 44.0725 23.8923 44.5789L20.6425 52.9354C20.4315 53.5263 20.8535 53.9484 21.4866 53.8639ZM34.1958 56.354C32.6764 56.1852 32.9719 54.708 33.0985 53.2309C33.5205 49.8123 34.1536 47.3222 35.3775 42.6797C36.2216 39.641 39.6824 39.3033 42.5523 40.4851C45.2112 41.3714 46.2241 43.777 44.8314 45.9717C44.1561 47.1534 43.4808 47.3222 42.0881 48.2507C41.3706 48.715 41.4128 49.2214 42.1303 49.7279C43.4808 50.6142 44.7892 51.5849 46.0553 52.5978C47.4903 53.7373 47.8701 54.3282 47.7857 55.1723C47.7435 56.6917 46.3085 56.9871 44.8736 55.8054C43.3964 54.4126 39.0493 51.2895 37.8676 50.6986C37.2345 50.4032 36.6859 50.6142 36.6015 51.2473C36.306 53.2309 36.095 56.565 34.1958 56.354ZM38.1208 45.7607C38.4585 46.2671 39.1759 46.0983 40.3577 45.5918C41.3706 45.212 42.0037 44.7477 41.9192 44.1147C41.7504 43.0174 38.9227 42.7219 38.5007 43.566C37.9942 44.6211 37.7832 45.2542 38.1208 45.7607ZM60.0112 57.7468C58.5762 57.5357 58.745 56.3118 58.745 54.497C58.7873 53.9484 58.4496 53.4841 57.901 53.4419L55.1999 53.3153C54.7356 53.3153 54.4402 53.5263 54.1025 54.0328C53.3007 55.2989 52.2877 56.8605 51.9501 57.1559C51.4014 57.5357 50.684 57.5357 50.1353 57.1559C49.3334 56.6495 49.2912 55.721 50.1353 54.4126L53.6805 48.504C55.1577 46.0139 58.7873 41.2026 60.3066 40.2741C61.6572 39.4722 63.0077 40.1052 63.2187 41.5824C63.4298 43.3128 62.1214 55.0035 61.6572 56.6917C61.4461 57.4513 60.7709 57.8734 60.0112 57.7468ZM58.2808 50.2766C58.8717 50.2766 59.3359 49.9811 59.4203 49.3481C59.7158 47.2378 59.7158 46.9002 59.3359 46.7736C58.4918 46.3937 56.6348 49.0948 57.0569 49.8545C57.2257 50.2343 57.5633 50.2766 58.2808 50.2766ZM69.5808 57.789C67.8504 57.6202 66.4998 56.4806 66.12 54.8347C65.0227 50.6564 69.7074 39.9786 73.759 38.7125C74.9407 38.3748 75.9959 38.7125 76.7977 39.6832C77.5996 40.7383 78.2327 42.5109 77.5152 43.5238C76.8822 44.4945 75.8692 44.4523 75.0252 43.4394C74.0966 42.1311 73.8012 42.1311 72.8727 43.3972C70.9735 46.1405 69.7074 49.0948 69.1587 52.2602C68.8211 53.8639 69.4119 55.0035 70.5515 54.4126C71.8598 53.6107 72.7883 52.7244 74.3077 51.1206C72.9149 50.1077 72.9571 48.504 74.3921 48.2929C75.405 48.2085 76.5023 48.2085 77.051 48.3773C78.1905 48.6306 78.7814 49.7701 78.2749 50.8674C77.0088 53.6529 72.4085 58 69.5808 57.789Z" fill="#2C1C12"/>
</svg>
