<svg width="254" height="222" viewBox="0 0 254 222" fill="none" xmlns="http://www.w3.org/2000/svg">
<g clip-path="url(#clip0_968_620)">
<path fill-rule="evenodd" clip-rule="evenodd" d="M247.453 86.1819C251.461 91.0953 249.974 98.2645 244.692 101.764L210.023 124.734C204.741 128.233 197.695 126.654 193.09 122.294C176.505 106.588 150.721 103.771 130.874 116.921C111.026 130.071 103.569 154.906 111.564 176.308C113.784 182.249 112.49 189.353 107.208 192.852L72.5427 215.819C67.2608 219.319 60.0828 217.891 57.1172 212.286C29.8663 160.74 45.6137 95.9441 95.2104 63.0845C144.807 30.2248 210.615 40.9875 247.453 86.1819Z" fill="#FFDE43"/>
<path d="M86.1544 185.994L73.0285 191.462L72.242 189.576L83.885 184.722L81.3697 178.693L82.8502 178.076L86.1519 185.991L86.1544 185.994Z" fill="#2C1C12" fill-opacity="0.9"/>
<path d="M81.5749 172.426C81.816 173.377 81.8149 174.274 81.5669 175.123C81.3225 175.969 80.8642 176.7 80.1956 177.311C79.527 177.923 78.6787 178.358 77.6568 178.619C76.6056 178.884 75.6379 178.909 74.7511 178.69C73.8643 178.472 73.107 178.052 72.4805 177.424C71.854 176.796 71.4178 175.995 71.1659 175.019C70.9176 174.04 70.9235 173.152 71.1763 172.341C71.4316 171.535 71.8691 170.845 72.4864 170.283C73.1038 169.721 73.8485 169.328 74.7133 169.108C74.8436 169.074 74.9861 169.043 75.1384 169.011C75.2906 168.978 75.4587 168.946 75.6486 168.915L77.7179 177.067L76.3196 177.419L74.7445 171.205C73.9271 171.457 73.3502 171.897 73.0163 172.529C72.6824 173.161 72.61 173.862 72.8041 174.623C72.9415 175.165 73.1898 175.627 73.5479 176.016C73.9036 176.402 74.3521 176.674 74.8848 176.827C75.4176 176.979 76.0408 176.967 76.7522 176.785L77.3027 176.647C78.0372 176.46 78.6222 176.168 79.0577 175.768C79.4933 175.369 79.7817 174.915 79.9267 174.403C80.0692 173.887 80.0729 173.368 79.9391 172.841C79.7788 172.209 79.5074 171.72 79.1297 171.381C78.752 171.041 78.2997 170.835 77.7741 170.757L77.2728 168.776C77.9215 168.794 78.5334 168.947 79.1181 169.234C79.7029 169.521 80.2058 169.93 80.6366 170.461C81.0673 170.992 81.3785 171.645 81.5749 172.426Z" fill="#2C1C12" fill-opacity="0.9"/>
<path d="M79.5794 162.211C79.6496 162.85 79.6117 163.412 79.4631 163.911C79.3122 164.406 79.0178 164.812 78.5727 165.117C78.1301 165.426 77.5039 165.625 76.6967 165.717L71.4684 166.295L71.6648 168.061L69.948 168.25L69.7516 166.484L67.1819 166.522L66.9832 164.737L69.5291 164.456L69.2079 161.556L70.9246 161.367L71.2483 164.271L76.4997 163.688C77.0793 163.626 77.4583 163.459 77.6391 163.192C77.8199 162.924 77.8782 162.496 77.8128 161.897L77.6807 160.72L79.3975 160.531L79.5855 162.213L79.5794 162.211Z" fill="#2C1C12" fill-opacity="0.9"/>
<path d="M65.1121 156.397L69.9825 158.227L70.0093 159.658L65.1552 158.623L65.1121 156.397Z" fill="#2C1C12" fill-opacity="0.9"/>
<path d="M79.7309 152.413C79.6752 153.282 79.4882 154.032 79.1604 154.666C78.8326 155.299 78.4041 155.788 77.8676 156.139C77.3287 156.485 76.7135 156.677 76.0184 156.716L76.1478 154.639C76.4742 154.591 76.7824 154.477 77.0653 154.3C77.3481 154.123 77.5813 153.863 77.7635 153.527C77.9457 153.19 78.0563 152.785 78.0831 152.309C78.111 151.858 78.0693 151.486 77.9593 151.185C77.8493 150.883 77.6856 150.66 77.4754 150.51C77.2615 150.362 77.0256 150.276 76.7688 150.261C76.3903 150.238 76.0967 150.312 75.8882 150.481C75.6796 150.651 75.5061 150.914 75.3713 151.266C75.2328 151.621 75.1027 152.045 74.9737 152.541C74.8629 153.01 74.7206 153.462 74.5539 153.894C74.3836 154.328 74.1794 154.711 73.9412 155.042C73.703 155.374 73.4102 155.631 73.0689 155.815C72.7252 155.995 72.3075 156.072 71.8231 156.04C71.2414 156.004 70.7294 155.811 70.2823 155.47C69.8352 155.129 69.4993 154.662 69.2719 154.064C69.047 153.471 68.9563 152.778 69.0045 151.992C69.0768 150.854 69.4053 149.952 69.9912 149.295C70.5772 148.638 71.3656 148.279 72.359 148.221L72.2348 150.195C71.7709 150.218 71.4041 150.403 71.1306 150.737C70.8595 151.074 70.7025 151.536 70.6669 152.118C70.6277 152.703 70.7191 153.158 70.9252 153.485C71.1374 153.813 71.4315 153.987 71.8063 154.013C72.0473 154.027 72.2715 153.952 72.4691 153.79C72.6703 153.625 72.845 153.372 72.9956 153.035C73.1462 152.698 73.2909 152.281 73.4297 151.784C73.6116 151.073 73.8226 150.438 74.059 149.881C74.299 149.322 74.6275 148.889 75.0397 148.573C75.4519 148.258 76.0268 148.125 76.7522 148.171C77.3899 148.196 77.9384 148.396 78.4037 148.757C78.8714 149.121 79.2183 149.613 79.4504 150.234C79.6825 150.854 79.7732 151.579 79.7188 152.41L79.7309 152.413Z" fill="#2C1C12" fill-opacity="0.9"/>
<path d="M82.4931 137.53C82.2022 138.481 81.7279 139.259 81.0691 139.869C80.4102 140.48 79.6326 140.879 78.7399 141.065C77.846 141.257 76.8931 141.193 75.8847 140.886C74.8618 140.574 74.0293 140.088 73.387 139.428C72.7448 138.769 72.3207 138.002 72.1148 137.127C71.9089 136.252 71.9477 135.341 72.2386 134.39C72.6043 133.194 73.2189 132.287 74.0884 131.669C74.9578 131.05 75.9566 130.794 77.0847 130.9L76.4649 132.928C75.8564 132.883 75.3265 133.045 74.8727 133.408C74.419 133.772 74.0951 134.277 73.9024 134.915C73.7429 135.437 73.7294 135.957 73.8607 136.481C73.9921 137.005 74.2733 137.477 74.7007 137.9C75.128 138.322 75.7237 138.649 76.4717 138.88C77.0263 139.05 77.5495 139.125 78.0292 139.102C78.5125 139.077 78.9436 138.981 79.3214 138.804C79.7016 138.631 80.0199 138.389 80.2751 138.083C80.5303 137.777 80.7211 137.429 80.8377 137.041C80.969 136.612 81.02 136.204 80.9905 135.818C80.9611 135.432 80.8463 135.076 80.6463 134.75C80.4487 134.428 80.1731 134.163 79.8255 133.956L80.4453 131.929C81.4129 132.467 82.0901 133.235 82.4698 134.238C82.8531 135.237 82.8589 136.334 82.4955 137.534L82.4931 137.53Z" fill="#2C1C12" fill-opacity="0.9"/>
<path d="M84.2912 131.388L71.1737 124.904L72.0767 123.073L77.506 125.754C77.124 125.186 76.9126 124.557 76.8766 123.859C76.8394 123.167 76.986 122.491 77.3127 121.832C77.6736 121.098 78.1339 120.545 78.6887 120.167C79.2435 119.789 79.8855 119.606 80.6146 119.618C81.3437 119.63 82.1501 119.854 83.0364 120.294L88.445 122.968L87.5494 124.778L82.3365 122.201C81.4758 121.776 80.7312 121.637 80.1064 121.783C79.4815 121.928 78.9948 122.361 78.6363 123.083C78.3953 123.569 78.2942 124.068 78.3319 124.57C78.372 125.075 78.5509 125.552 78.8809 126.002C79.2108 126.453 79.6906 126.835 80.324 127.148L85.1856 129.552L84.2827 131.383L84.2912 131.388Z" fill="#2C1C12" fill-opacity="0.9"/>
<path d="M91.5986 118.689C91.1161 119.382 90.6012 119.876 90.0502 120.173C89.4993 120.469 88.9488 120.592 88.3987 120.54C87.8487 120.488 87.344 120.306 86.8859 119.988C86.3306 119.603 85.9557 119.125 85.7623 118.563C85.5666 117.997 85.5536 117.374 85.7111 116.69C85.8747 116.007 86.2101 115.29 86.7317 114.544L88.2564 112.349C87.7679 112.009 87.3095 111.802 86.8862 111.719C86.4628 111.636 86.0719 111.689 85.7112 111.86C85.3529 112.034 85.0222 112.337 84.718 112.776C84.3686 113.281 84.192 113.793 84.181 114.317C84.1699 114.84 84.3696 115.309 84.7763 115.724L83.6132 117.4C83.0703 116.923 82.7102 116.371 82.528 115.739C82.3482 115.11 82.328 114.444 82.4722 113.748C82.6164 113.052 82.8968 112.402 83.3134 111.8C83.8631 111.009 84.4635 110.437 85.1156 110.095C85.7676 109.752 86.4375 109.619 87.1347 109.695C87.832 109.77 88.5312 110.055 89.2311 110.539L94.4426 114.155L93.4311 115.615L91.919 114.763C92.0558 115.041 92.1646 115.332 92.2515 115.638C92.3347 115.946 92.3716 116.264 92.3562 116.591C92.3432 116.921 92.2742 117.261 92.1515 117.616C92.0289 117.972 91.843 118.326 91.5962 118.685L91.5986 118.689ZM90.4661 117.432C90.7129 117.074 90.8673 116.703 90.9218 116.308C90.9788 115.918 90.953 115.529 90.8456 115.153C90.7395 114.77 90.5639 114.418 90.3225 114.093C90.0786 113.765 89.7909 113.481 89.4665 113.238L89.4167 113.203L88.0337 115.199C87.7014 115.682 87.4885 116.108 87.4023 116.486C87.3162 116.864 87.3239 117.186 87.4327 117.461C87.5392 117.733 87.7273 117.961 87.9934 118.149C88.274 118.342 88.5513 118.443 88.8349 118.45C89.1185 118.457 89.4011 118.375 89.6852 118.208C89.9668 118.037 90.2279 117.779 90.4686 117.436L90.4661 117.432Z" fill="#2C1C12" fill-opacity="0.9"/>
<path d="M95.6708 112.624L88.1294 105.69L89.3695 104.336L90.741 105.429C90.5126 104.774 90.4705 104.107 90.6086 103.426C90.7503 102.742 91.0829 102.116 91.6078 101.542C92.1571 100.941 92.7521 100.536 93.3905 100.324C94.0252 100.114 94.6971 100.111 95.4002 100.314C96.1056 100.521 96.8215 100.958 97.5477 101.625L102.006 105.724L100.628 107.227L96.319 103.266C95.6195 102.624 94.9484 102.294 94.3033 102.274C93.6583 102.253 93.0647 102.541 92.524 103.131C92.1664 103.521 91.9352 103.958 91.8354 104.435C91.7344 104.918 91.7794 105.415 91.9667 105.928C92.1565 106.445 92.5095 106.938 93.0268 107.417L97.0525 111.118L95.6745 112.621L95.6708 112.624Z" fill="#2C1C12" fill-opacity="0.9"/>
<path d="M109.687 105.299C108.972 105.904 108.259 106.345 107.555 106.633C106.848 106.916 106.192 106.998 105.576 106.879C104.96 106.761 104.426 106.43 103.971 105.894C103.736 105.612 103.561 105.276 103.442 104.89C103.325 104.499 103.301 104.057 103.363 103.563C103.425 103.069 103.61 102.514 103.911 101.904L105.376 101.866C105.011 102.508 104.852 103.045 104.904 103.474C104.951 103.902 105.087 104.243 105.303 104.506C105.567 104.816 105.875 104.996 106.239 105.044C106.599 105.095 106.989 105.032 107.407 104.86C107.823 104.685 108.236 104.427 108.655 104.075C109.06 103.733 109.367 103.378 109.571 103.011C109.775 102.644 109.874 102.283 109.868 101.934C109.86 101.587 109.736 101.274 109.502 100.992C109.224 100.66 108.863 100.488 108.428 100.476C107.99 100.466 107.4 100.735 106.661 101.288C106.033 101.746 105.481 102.112 105.008 102.384C104.535 102.655 104.116 102.864 103.739 103.003C103.367 103.139 103.032 103.23 102.733 103.264C102.437 103.302 102.164 103.31 101.914 103.291L101.613 102.932L101.824 100.016L103.455 99.3883L103.078 102.393L102.816 101.418C102.989 101.393 103.158 101.371 103.32 101.353C103.482 101.335 103.672 101.273 103.891 101.175C104.111 101.077 104.392 100.922 104.726 100.711C105.064 100.498 105.491 100.204 106.015 99.836C106.765 99.2917 107.439 98.9347 108.036 98.771C108.633 98.6073 109.172 98.603 109.649 98.7664C110.126 98.9299 110.557 99.2393 110.939 99.6971C111.314 100.144 111.549 100.673 111.647 101.282C111.742 101.894 111.642 102.545 111.346 103.235C111.048 103.928 110.493 104.617 109.683 105.301L109.687 105.299ZM104.623 99.2837C103.958 99.8453 103.289 100.194 102.617 100.339C101.942 100.48 101.307 100.443 100.702 100.222C100.1 100.005 99.5801 99.6328 99.1432 99.1164C98.6991 98.589 98.4206 98.0098 98.3126 97.386C98.2046 96.7623 98.2768 96.1245 98.5317 95.4764C98.7865 94.8282 99.2408 94.227 99.8971 93.6763C100.553 93.1256 101.219 92.7795 101.896 92.6417C102.573 92.5038 103.211 92.5448 103.81 92.7586C104.41 92.9723 104.93 93.3441 105.374 93.8715C105.811 94.388 106.087 94.9635 106.2 95.5946C106.313 96.2257 106.244 96.861 105.988 97.4994C105.732 98.1378 105.279 98.733 104.625 99.2873L104.623 99.2837ZM103.573 98.0408C104.084 97.6127 104.377 97.1339 104.457 96.6179C104.533 96.0982 104.362 95.5851 103.932 95.0796C103.506 94.5718 103.03 94.3133 102.506 94.3019C101.979 94.2929 101.465 94.5019 100.954 94.9301C100.443 95.3583 100.146 95.8395 100.056 96.3627C99.9681 96.8897 100.136 97.4052 100.564 97.9168C100.99 98.4246 101.474 98.6782 102.008 98.6824C102.543 98.6865 103.068 98.4702 103.577 98.0384L103.573 98.0408ZM102.364 94.0068L100.955 93.0965L104.185 90.377L105.089 91.4477L102.366 94.0105L102.364 94.0068Z" fill="#2C1C12" fill-opacity="0.9"/>
<path d="M115.665 95.2353C114.849 95.7758 114 96.075 113.12 96.1209C112.236 96.1692 111.396 95.9827 110.597 95.554C109.797 95.1253 109.106 94.4717 108.518 93.5919C107.919 92.6878 107.573 91.7845 107.481 90.8759C107.39 89.9673 107.538 89.1106 107.921 88.3143C108.304 87.518 108.915 86.8345 109.752 86.2795C110.59 85.7245 111.432 85.4301 112.283 85.4036C113.133 85.3771 113.923 85.5599 114.66 85.9567C115.396 86.3535 116.016 86.9229 116.51 87.6696C116.586 87.7831 116.666 87.9039 116.746 88.0405C116.829 88.1747 116.913 88.3248 117.006 88.4894L110.007 93.1474L109.21 91.9431L114.539 88.3963C114.032 87.7104 113.426 87.3116 112.719 87.2058C112.012 87.1001 111.326 87.2647 110.671 87.6985C110.207 88.0063 109.853 88.3935 109.603 88.8591C109.357 89.3222 109.25 89.8356 109.284 90.3873C109.32 90.9426 109.538 91.5253 109.941 92.133L110.256 92.6088C110.675 93.2421 111.15 93.6965 111.667 93.9758C112.19 94.2563 112.713 94.3785 113.246 94.3412C113.775 94.3064 114.269 94.1375 114.722 93.837C115.267 93.4759 115.634 93.0594 115.827 92.5889C116.021 92.1183 116.067 91.6241 115.966 91.1063L117.667 89.9794C117.863 90.5925 117.924 91.2258 117.847 91.8721C117.77 92.5184 117.554 93.1301 117.196 93.7097C116.838 94.2894 116.325 94.8028 115.656 95.2463L115.665 95.2353Z" fill="#2C1C12" fill-opacity="0.9"/>
<path d="M129.244 87.4328C128.667 87.7049 128.115 87.8492 127.601 87.8683C127.082 87.8861 126.608 87.7361 126.17 87.4157C125.731 87.0952 125.344 86.5668 124.999 85.8315L122.763 81.0661L121.157 81.8195L120.422 80.2575L122.028 79.5041L121.16 77.082L122.787 76.3201L123.876 78.6382L126.518 77.3986L127.249 78.9631L124.607 80.2027L126.851 84.9888C127.1 85.5144 127.379 85.8245 127.688 85.9095C127.999 85.9982 128.425 85.9106 128.968 85.6567L130.039 85.1524L130.77 86.7168L129.237 87.4376L129.244 87.4328Z" fill="#2C1C12" fill-opacity="0.9"/>
<path d="M132.397 85.9741L127.608 72.1443L129.535 71.4784L131.517 77.2024C131.644 76.5283 131.939 75.9326 132.399 75.4118C132.862 74.8946 133.436 74.5141 134.131 74.2752C134.901 74.0074 135.618 73.9378 136.277 74.0592C136.939 74.1843 137.524 74.5028 138.036 75.0219C138.548 75.541 138.965 76.2655 139.285 77.2016L141.261 82.9086L139.351 83.5685L137.449 78.0761C137.136 77.1668 136.704 76.5469 136.155 76.2103C135.608 75.8774 134.953 75.8424 134.194 76.103C133.68 76.2803 133.262 76.5627 132.933 76.9488C132.605 77.3349 132.403 77.8006 132.319 78.3568C132.236 78.9069 132.309 79.5171 132.541 80.1851L134.317 85.313L132.39 85.979L132.397 85.9741Z" fill="#2C1C12" fill-opacity="0.9"/>
<path d="M147.779 81.7027C146.819 81.8969 145.922 81.8539 145.087 81.5638C144.249 81.2763 143.545 80.7845 142.967 80.0875C142.389 79.3904 141.992 78.521 141.781 77.4866C141.562 76.4254 141.584 75.4575 141.844 74.5793C142.103 73.7071 142.56 72.9671 143.219 72.3726C143.875 71.7744 144.697 71.3777 145.684 71.1763C146.672 70.9749 147.562 71.0228 148.357 71.3175C149.152 71.6123 149.817 72.0831 150.355 72.7277C150.889 73.3747 151.245 74.1344 151.425 75.0104C151.451 75.1457 151.477 75.287 151.503 75.438C151.526 75.5915 151.551 75.7645 151.576 75.9533L143.338 77.6292L143.049 76.2147L149.328 74.9356C149.116 74.1069 148.705 73.5102 148.088 73.1442C147.472 72.7782 146.777 72.6749 146.002 72.8307C145.454 72.941 144.981 73.1647 144.579 73.5044C144.176 73.8403 143.885 74.2753 143.708 74.8032C143.532 75.331 143.517 75.9519 143.66 76.6683L143.771 77.2263C143.922 77.9695 144.187 78.5682 144.563 79.0248C144.939 79.4813 145.383 79.7932 145.887 79.9592C146.392 80.1252 146.912 80.1549 147.446 80.0482C148.087 79.9188 148.587 79.672 148.942 79.3103C149.297 78.9486 149.526 78.5073 149.628 77.9865L151.627 77.5789C151.575 78.2241 151.395 78.8335 151.08 79.3999C150.766 79.9663 150.331 80.4543 149.785 80.8532C149.235 81.2544 148.567 81.5336 147.781 81.6966L147.779 81.7027Z" fill="#2C1C12" fill-opacity="0.9"/>
<path d="M163.647 80.1586C162.654 80.1529 161.773 79.92 160.998 79.4646C160.226 79.0068 159.619 78.3766 159.183 77.5752C158.747 76.7739 158.53 75.843 158.535 74.7862C158.54 73.7135 158.768 72.7779 159.215 71.9757C159.663 71.1736 160.274 70.5473 161.049 70.0968C161.827 69.65 162.711 69.4276 163.705 69.4332C164.957 69.4408 166.002 69.7705 166.841 70.4258C167.681 71.0811 168.214 71.9655 168.439 73.0754L166.316 73.065C166.184 72.468 165.876 72.0031 165.397 71.6777C164.916 71.3486 164.342 71.1812 163.677 71.1791C163.133 71.1761 162.628 71.3109 162.163 71.587C161.699 71.8631 161.325 72.2686 161.046 72.801C160.764 73.3358 160.621 73.9941 160.62 74.7794C160.616 75.3614 160.698 75.8816 160.856 76.335C161.017 76.7921 161.237 77.1727 161.513 77.4853C161.788 77.7978 162.114 78.0351 162.481 78.1921C162.848 78.3491 163.234 78.4307 163.642 78.4345C164.091 78.4371 164.498 78.3678 164.858 78.2289C165.219 78.0901 165.525 77.8767 165.779 77.5926C166.033 77.3085 166.205 76.973 166.304 76.5813L168.426 76.5917C168.191 77.6746 167.649 78.5398 166.801 79.1909C165.953 79.842 164.903 80.1638 163.653 80.1598L163.647 80.1586Z" fill="#2C1C12" fill-opacity="0.9"/>
<path d="M173.746 80.9575C172.952 80.8247 172.292 80.5511 171.762 80.133C171.233 79.7149 170.861 79.1609 170.657 78.4638C170.449 77.7691 170.422 76.9338 170.588 75.9603L171.58 69.9669L173.593 70.3033L172.638 76.0764C172.484 77.0268 172.573 77.7735 172.908 78.3261C173.246 78.8763 173.801 79.2141 174.579 79.3469C175.099 79.4338 175.594 79.3854 176.062 79.2018C176.526 79.0207 176.919 78.7078 177.24 78.2632C177.564 77.8223 177.777 77.2543 177.895 76.5595L178.786 71.1661L180.798 71.5025L179.128 81.6054L177.336 81.3074L177.478 79.5595C177.066 80.1219 176.537 80.5305 175.891 80.7793C175.245 81.028 174.527 81.0878 173.752 80.9587L173.746 80.9575Z" fill="#2C1C12" fill-opacity="0.9"/>
<path d="M181.212 82.2916L185.264 68.2355L187.223 68.8019L183.168 82.8603L181.209 82.294L181.212 82.2916Z" fill="#2C1C12" fill-opacity="0.9"/>
<path d="M189.284 85.0568C188.689 84.8247 188.205 84.5237 187.838 84.1609C187.469 83.7944 187.252 83.3481 187.183 82.8146C187.117 82.2787 187.23 81.6301 187.525 80.8761L189.449 75.9779L187.797 75.3285L188.427 73.7209L190.078 74.3703L191.243 72.0764L192.915 72.7332L191.979 75.1179L194.696 76.1834L194.066 77.791L191.349 76.7255L189.422 81.6419C189.208 82.1843 189.177 82.5994 189.329 82.8836C189.48 83.1677 189.834 83.4233 190.392 83.6382L191.495 84.0715L190.865 85.6791L189.287 85.0604L189.284 85.0568Z" fill="#2C1C12" fill-opacity="0.9"/>
<path d="M195.548 88.3876C194.851 87.986 194.328 87.4997 193.977 86.9215C193.625 86.3432 193.475 85.695 193.517 84.9719C193.565 84.25 193.834 83.4558 194.326 82.6027L197.351 77.3329L199.121 78.3516L196.208 83.4257C195.729 84.2594 195.552 84.993 195.677 85.6265C195.802 86.2601 196.205 86.7727 196.888 87.1682C197.347 87.4327 197.828 87.562 198.327 87.5527C198.826 87.5433 199.304 87.3902 199.761 87.0873C200.218 86.7843 200.617 86.3302 200.969 85.7177L203.693 80.9791L205.463 81.9978L200.365 90.8746L198.791 89.9686L199.536 88.3845C198.954 88.7698 198.316 88.9662 197.621 88.9738C196.926 88.9813 196.234 88.7867 195.553 88.3949L195.548 88.3876Z" fill="#2C1C12" fill-opacity="0.9"/>
<path d="M202.031 92.1853L208.345 84.1257L209.79 85.259L208.744 86.8896C209.21 86.6707 209.687 86.5493 210.17 86.524C210.654 86.4988 211.149 86.571 211.65 86.7394C212.151 86.9078 212.652 87.187 213.157 87.5843L211.829 89.281L211.249 88.8274C210.919 88.567 210.569 88.3565 210.208 88.2007C209.846 88.0449 209.474 87.9756 209.092 87.9865C208.71 87.9975 208.327 88.1192 207.942 88.3481C207.557 88.577 207.17 88.9386 206.783 89.4268L203.636 93.4396L202.029 92.1816L202.031 92.1853Z" fill="#2C1C12" fill-opacity="0.9"/>
<path d="M210.48 99.8895C209.795 99.1897 209.346 98.4078 209.136 97.5512C208.924 96.6909 208.955 95.8326 209.225 94.969C209.495 94.1054 210.01 93.301 210.768 92.5619C211.541 91.807 212.367 91.2971 213.245 91.0418C214.123 90.7864 214.987 90.7722 215.844 91.0001C216.7 91.2281 217.478 91.703 218.187 92.4237C218.89 93.143 219.335 93.9176 219.518 94.7498C219.702 95.5759 219.667 96.3891 219.413 97.1895C219.159 97.9898 218.714 98.7007 218.075 99.3245C217.979 99.4191 217.871 99.5174 217.755 99.6205C217.639 99.7236 217.508 99.8365 217.363 99.959L211.486 93.9401L212.519 92.934L216.996 97.5215C217.576 96.895 217.854 96.2263 217.827 95.5115C217.801 94.7967 217.513 94.1553 216.96 93.5898C216.569 93.1904 216.121 92.9126 215.621 92.7539C215.122 92.5953 214.597 92.59 214.06 92.7246C213.523 92.8593 212.991 93.1851 212.466 93.696L212.06 94.0916C211.516 94.6208 211.158 95.1687 210.977 95.7307C210.8 96.2963 210.776 96.8332 210.913 97.3486C211.049 97.8641 211.302 98.3178 211.686 98.7062C212.142 99.1728 212.62 99.4568 213.117 99.5643C213.616 99.6658 214.109 99.6235 214.602 99.429L216.028 100.891C215.459 101.2 214.85 101.377 214.202 101.416C213.553 101.461 212.912 101.36 212.275 101.113C211.64 100.87 211.042 100.46 210.478 99.8859L210.48 99.8895Z" fill="#2C1C12" fill-opacity="0.9"/>
</g>
<defs>
<clipPath id="clip0_968_620">
<rect width="228.421" height="114.805" fill="white" transform="translate(0 126.16) rotate(-33.526)"/>
</clipPath>
</defs>
</svg>
