<svg width="173" height="141" viewBox="0 0 173 141" fill="none" xmlns="http://www.w3.org/2000/svg">
<g clip-path="url(#clip0_968_646)">
<path fill-rule="evenodd" clip-rule="evenodd" d="M139.566 133.578C137.95 137.514 133.23 138.919 129.458 136.911L104.7 123.732C100.928 121.724 99.5915 117.054 100.688 112.942C104.637 98.1305 97.997 81.9872 83.8234 74.4422C69.6497 66.8971 52.554 70.4018 42.4676 81.9498C39.6683 85.1554 35.0486 86.6543 31.2766 84.6464L6.52103 71.4682C2.74905 69.4603 1.28142 64.7609 3.64162 61.2214C25.3586 28.6816 68.7667 17.3438 104.185 36.1982C139.604 55.0526 154.437 97.394 139.566 133.578Z" fill="#717DCE"/>
<path d="M28.5487 70.0139L21.0853 63.9951L21.9478 62.929L28.5703 68.2666L31.3268 64.8581L32.1691 65.5367L28.5501 70.0113L28.5487 70.0139Z" fill="#2C1C12" fill-opacity="0.9"/>
<path d="M35.1006 62.9836C34.6152 63.4294 34.0847 63.7143 33.5025 63.8382C32.9229 63.9636 32.3432 63.9253 31.766 63.7248C31.1888 63.5244 30.6578 63.1616 30.1742 62.6405C29.6791 62.1033 29.3525 61.539 29.196 60.945C29.0395 60.3511 29.0441 59.7695 29.2137 59.199C29.3833 58.6284 29.7169 58.1152 30.2132 57.6552C30.7121 57.1965 31.2398 56.9168 31.8005 56.8081C32.3599 56.702 32.9092 56.7408 33.4404 56.9268C33.9716 57.1128 34.4442 57.4278 34.853 57.869C34.9149 57.9354 34.9793 58.0097 35.0475 58.0894C35.1157 58.1691 35.189 58.2581 35.2686 58.3606L31.1122 62.182L30.4533 61.4675L33.6226 58.5557C33.2103 58.1526 32.764 57.9518 32.2825 57.9558C31.801 57.9597 31.3629 58.1404 30.9748 58.4978C30.699 58.7515 30.5055 59.0456 30.3904 59.3815C30.2767 59.7148 30.2604 60.0666 30.3417 60.4302C30.423 60.7939 30.6313 61.1584 30.9679 61.5211L31.227 61.8026C31.5739 62.1775 31.9356 62.4301 32.3121 62.5604C32.6886 62.6908 33.0529 62.7179 33.4 62.639C33.7511 62.5589 34.0592 62.3958 34.3282 62.1485C34.65 61.8526 34.8519 61.5363 34.9312 61.2047C35.0105 60.8731 34.9867 60.54 34.8663 60.2056L35.8763 59.2781C36.0747 59.6674 36.1814 60.078 36.2001 60.5151C36.2188 60.9523 36.1386 61.3801 35.9632 61.8041C35.7878 62.228 35.5021 62.6199 35.1032 62.985L35.1006 62.9836Z" fill="#2C1C12" fill-opacity="0.9"/>
<path d="M40.5016 58.5462C40.1466 58.7911 39.8016 58.9479 39.4587 59.019C39.1172 59.0875 38.7823 59.0427 38.4582 58.8769C38.1328 58.7136 37.8134 58.4068 37.4987 57.9589L35.4727 55.0515L34.4911 55.7304L33.826 54.7756L34.8076 54.0967L33.9573 52.5894L34.9496 51.9029L35.9357 53.3189L37.548 52.2047L38.2131 53.1595L36.5994 54.2763L38.6357 57.1958C38.8595 57.5185 39.0803 57.6895 39.2967 57.7112C39.513 57.733 39.7853 57.6309 40.1187 57.4012L40.7723 56.9482L41.4373 57.9029L40.5028 58.5502L40.5016 58.5462Z" fill="#2C1C12" fill-opacity="0.9"/>
<path d="M39.2794 48.1409L39.7659 51.6038L38.9281 52.0756L37.9764 48.8757L39.2794 48.1409Z" fill="#2C1C12" fill-opacity="0.9"/>
<path d="M46.3481 55.512C45.816 55.756 45.3116 55.8847 44.8313 55.8927C44.3511 55.9007 43.9235 55.8033 43.5435 55.5976C43.1649 55.3894 42.8534 55.0867 42.6062 54.6882L43.8766 54.1029C44.0099 54.2807 44.1771 54.4264 44.3728 54.5373C44.5686 54.6482 44.7974 54.7032 45.0553 54.7037C45.3132 54.7041 45.5885 54.6404 45.8787 54.5045C46.1542 54.3775 46.3613 54.2341 46.504 54.0731C46.6467 53.9121 46.726 53.7441 46.7473 53.5719C46.766 53.3983 46.7409 53.2314 46.6665 53.075C46.5583 52.8438 46.4203 52.6936 46.2527 52.6244C46.085 52.5552 45.8739 52.5362 45.6218 52.5689C45.3671 52.6002 45.0748 52.6582 44.7395 52.74C44.4267 52.8238 44.1132 52.8839 43.8041 52.9229C43.4924 52.9606 43.2001 52.9618 42.9271 52.9266C42.6542 52.8915 42.4077 52.8003 42.1889 52.6571C41.9715 52.5114 41.7916 52.2888 41.6545 51.9922C41.4883 51.6368 41.4375 51.2726 41.4953 50.8995C41.5531 50.5265 41.7213 50.1789 42.0015 49.8541C42.2803 49.5319 42.6611 49.2574 43.1412 49.0357C43.8378 48.7157 44.4775 48.6224 45.0549 48.7595C45.6323 48.8967 46.0987 49.2484 46.4529 49.8174L45.2454 50.3728C45.0825 50.1058 44.8548 49.9479 44.5691 49.8926C44.282 49.8399 43.958 49.8944 43.6023 50.0588C43.2439 50.2218 43.0038 50.421 42.8768 50.6471C42.7509 50.8771 42.7428 51.1064 42.8485 51.3362C42.9177 51.4832 43.0342 51.5919 43.194 51.657C43.3564 51.7234 43.5622 51.7462 43.81 51.7279C44.0577 51.7096 44.3512 51.6622 44.6902 51.5857C45.1692 51.4669 45.6128 51.3893 46.0184 51.3516C46.4266 51.3153 46.7864 51.37 47.1083 51.5146C47.4276 51.6579 47.6917 51.9554 47.898 52.399C48.0886 52.7841 48.1495 53.1736 48.0834 53.5622C48.0185 53.9549 47.8393 54.3167 47.547 54.6517C47.2547 54.9867 46.8551 55.2713 46.3457 55.504L46.3481 55.512Z" fill="#2C1C12" fill-opacity="0.9"/>
<path d="M56.0429 52.4026C55.3864 52.5337 54.7735 52.5011 54.2002 52.306C53.6268 52.111 53.1401 51.7784 52.7425 51.3098C52.341 50.8424 52.0718 50.2586 51.9282 49.5647C51.7836 48.8603 51.8029 48.2131 51.9862 47.6232C52.1695 47.0333 52.4868 46.538 52.938 46.1374C53.3893 45.7369 53.9405 45.4697 54.597 45.3385C55.4223 45.1738 56.1572 45.2479 56.803 45.565C57.4488 45.8821 57.9222 46.3911 58.2229 47.0918L56.8236 47.3715C56.6539 46.9975 56.3877 46.7356 56.0263 46.5833C55.6649 46.4309 55.2622 46.4002 54.8223 46.4897C54.4622 46.5617 54.1503 46.7193 53.8826 46.964C53.6149 47.2086 53.4262 47.5254 53.3138 47.9128C53.2015 48.3002 53.1999 48.7565 53.304 49.2725C53.3823 49.6546 53.5066 49.9878 53.6746 50.2641C53.8427 50.5405 54.041 50.7662 54.2671 50.9333C54.4919 51.103 54.7379 51.2139 55.0012 51.2673C55.2644 51.3207 55.5315 51.3227 55.7987 51.268C56.095 51.2088 56.3527 51.109 56.5716 50.9686C56.7905 50.8281 56.9641 50.6469 57.0924 50.4248C57.2192 50.2053 57.2899 49.9593 57.2977 49.6864L58.697 49.4067C58.6899 50.1505 58.4538 50.7957 57.9832 51.3396C57.5153 51.8848 56.8681 52.2378 56.0415 52.4052L56.0429 52.4026Z" fill="#2C1C12" fill-opacity="0.9"/>
<path d="M60.2555 51.5116L59.8658 41.6891L61.2398 41.6396L61.3999 45.703C61.6133 45.2959 61.9172 44.9705 62.3185 44.7269C62.7157 44.4844 63.1632 44.3555 63.6582 44.3387C64.2089 44.3181 64.6841 44.4142 65.0865 44.6218C65.4889 44.8293 65.804 45.1506 66.0318 45.5855C66.2595 46.0205 66.3867 46.5688 66.4119 47.233L66.5724 51.2832L65.2129 51.3305L65.0609 47.4282C65.0352 46.7838 64.8774 46.2993 64.5901 45.9762C64.3029 45.653 63.8898 45.5032 63.3471 45.5214C62.9818 45.5338 62.6541 45.6331 62.3694 45.8152C62.0833 46 61.8615 46.2591 61.6988 46.5963C61.5386 46.9349 61.4669 47.3406 61.486 47.8147L61.6297 51.4555L60.2557 51.505L60.2555 51.5116Z" fill="#2C1C12" fill-opacity="0.9"/>
<path d="M70.1236 51.7841C69.5578 51.7199 69.0997 51.5728 68.7467 51.3415C68.3938 51.1103 68.144 50.8238 67.9974 50.4821C67.8508 50.1404 67.7957 49.784 67.8363 49.4118C67.8854 48.9607 68.0451 48.5851 68.3178 48.2931C68.5894 47.9971 68.954 47.7907 69.4093 47.666C69.8658 47.5452 70.3982 47.5149 71.0076 47.5857L72.7976 47.7876C72.8414 47.3904 72.8163 47.0534 72.729 46.7766C72.6416 46.4998 72.484 46.2858 72.267 46.1268C72.0485 45.9705 71.7625 45.8716 71.405 45.8315C70.9934 45.786 70.6336 45.8447 70.3203 46.005C70.0071 46.1653 69.7944 46.4326 69.6797 46.8054L68.3132 46.652C68.4209 46.1787 68.6312 45.79 68.9467 45.4807C69.2608 45.174 69.6484 44.9498 70.1066 44.8132C70.5648 44.6767 71.0393 44.6356 71.53 44.6899C72.175 44.7629 72.7065 44.9357 73.1192 45.2122C73.5319 45.4886 73.829 45.8437 74.0065 46.2786C74.184 46.7135 74.2434 47.219 74.1823 47.7872L73.7221 52.021L72.5323 51.8882L72.5493 50.7226C72.4289 50.8921 72.2916 51.0493 72.1386 51.1981C71.9856 51.3469 71.8069 51.4687 71.6089 51.5635C71.4095 51.661 71.1857 51.7287 70.9361 51.7694C70.6864 51.8101 70.4166 51.8133 70.125 51.7815L70.1236 51.7841ZM70.5022 50.7141C70.7937 50.7458 71.0628 50.7189 71.3137 50.6255C71.5646 50.5321 71.7847 50.3956 71.9729 50.2121C72.1651 50.0274 72.317 49.8113 72.4313 49.5651C72.547 49.3163 72.6246 49.0572 72.6614 48.7865L72.6664 48.7457L71.0399 48.5641C70.6468 48.5217 70.3265 48.5314 70.0749 48.601C69.8233 48.6706 69.6329 48.7762 69.5076 48.9298C69.3811 49.0794 69.3066 49.2633 69.2816 49.4803C69.2577 49.7079 69.2874 49.9039 69.3747 50.0738C69.4619 50.2438 69.6014 50.3848 69.7917 50.4994C69.9835 50.6115 70.2199 50.684 70.5008 50.7167L70.5022 50.7141Z" fill="#2C1C12" fill-opacity="0.9"/>
<path d="M75.0242 52.2596L76.6969 45.5908L77.8972 45.8927L77.6925 47.0519C78.0062 46.7083 78.3874 46.4707 78.8376 46.3366C79.2878 46.2024 79.7654 46.1997 80.2742 46.327C80.8067 46.4603 81.2378 46.6831 81.5691 46.993C81.8977 47.3014 82.1158 47.6978 82.2221 48.1783C82.327 48.6613 82.2991 49.2238 82.1384 49.8658L81.1494 53.8081L79.8162 53.4722L80.7717 49.6622C80.9265 49.0438 80.9054 48.542 80.7096 48.1541C80.5138 47.7662 80.1523 47.507 79.629 47.3753C79.2832 47.288 78.9499 47.2907 78.6355 47.3837C78.3172 47.4779 78.0377 47.6629 77.7945 47.9372C77.5498 48.2141 77.3718 48.58 77.2552 49.0385L76.3625 52.5982L75.0294 52.2624L75.0242 52.2596Z" fill="#2C1C12" fill-opacity="0.9"/>
<path d="M83.8733 58.211C83.2849 57.9813 82.7942 57.7001 82.3972 57.3752C82.0016 57.0478 81.7417 56.6859 81.6137 56.284C81.4857 55.8821 81.5089 55.4606 81.6794 55.0207C81.7682 54.791 81.9134 54.5812 82.1031 54.3885C82.2968 54.1946 82.5505 54.0393 82.8629 53.9186C83.1752 53.7978 83.563 53.7306 84.021 53.7141L84.5152 54.5679C84.0182 54.557 83.6487 54.6339 83.4119 54.8016C83.1739 54.9653 83.016 55.1549 82.9303 55.3662C82.8317 55.6208 82.8247 55.8607 82.9131 56.0913C82.9989 56.3205 83.1619 56.5308 83.3981 56.7232C83.6356 56.9131 83.9214 57.0752 84.2647 57.2113C84.5975 57.3417 84.9067 57.4095 85.1897 57.4133C85.4726 57.4171 85.7173 57.3604 85.9198 57.2446C86.1222 57.1288 86.2678 56.956 86.3592 56.7276C86.4662 56.4575 86.4514 56.1893 86.3187 55.9284C86.1834 55.6662 85.8339 55.4034 85.2687 55.1426C84.7953 54.9172 84.4008 54.7073 84.088 54.514C83.7738 54.3234 83.5163 54.1396 83.3128 53.9612C83.112 53.7842 82.9507 53.6149 82.8343 53.4495C82.7165 53.2867 82.6237 53.1271 82.5546 52.9736L82.67 52.6812L84.4627 51.8767L85.3598 52.6413L83.4603 53.3756L83.9528 52.9102C84.0233 53.0045 84.0912 53.0973 84.1539 53.1874C84.2165 53.2775 84.3149 53.3699 84.4435 53.4684C84.5721 53.5669 84.7544 53.684 84.9868 53.8144C85.2217 53.9461 85.5327 54.105 85.9196 54.2976C86.4832 54.5676 86.9116 54.8524 87.2034 55.1545C87.4925 55.4553 87.6688 55.7727 87.723 56.1053C87.7799 56.4393 87.7358 56.793 87.5881 57.1649C87.4446 57.529 87.2071 57.8365 86.8784 58.0887C86.5471 58.3395 86.1296 58.4877 85.626 58.5333C85.1223 58.5789 84.5337 58.4692 83.868 58.2083L83.8733 58.211ZM85.8005 53.2997C85.254 53.0856 84.8323 52.801 84.5298 52.4497C84.2287 52.0959 84.0461 51.7084 83.9822 51.2805C83.9169 50.8553 83.9694 50.4293 84.1341 50.0064C84.3031 49.5757 84.5561 49.2264 84.8903 48.9638C85.2245 48.7012 85.6251 48.5407 86.0907 48.4848C86.5562 48.4289 87.0583 48.506 87.5955 48.7185C88.1327 48.9311 88.5519 49.2143 88.8516 49.5707C89.1513 49.9272 89.3325 50.3173 89.3992 50.74C89.4658 51.1626 89.4134 51.5886 89.2445 52.0193C89.0797 52.4422 88.8281 52.7888 88.4911 53.0566C88.1541 53.3245 87.7561 53.4864 87.2959 53.5385C86.8358 53.5905 86.3377 53.5123 85.7991 53.3023L85.8005 53.2997ZM86.1976 52.2829C86.6155 52.4487 86.9907 52.4682 87.3241 52.352C87.6563 52.2318 87.9046 51.9668 88.0652 51.5517C88.2259 51.1366 88.2279 50.7739 88.066 50.4608C87.9041 50.1477 87.6122 49.9089 87.1943 49.7431C86.7763 49.5773 86.3959 49.5551 86.0547 49.6671C85.7147 49.7831 85.4637 50.0467 85.2991 50.463C85.1359 50.8767 85.1417 51.2436 85.3114 51.5609C85.4811 51.8782 85.7782 52.1198 86.1976 52.2829ZM88.1946 50.2823L88.2794 49.1593L90.9289 50.2026L90.5868 51.0785L88.1932 50.2849L88.1946 50.2823Z" fill="#2C1C12" fill-opacity="0.9"/>
<path d="M91.75 58.5396C91.1675 58.2295 90.7169 57.8228 90.4062 57.317C90.0929 56.8097 89.9328 56.254 89.9288 55.6444C89.9247 55.0348 90.0888 54.418 90.4198 53.7899C90.7618 53.1476 91.1848 52.6552 91.6929 52.3116C92.201 51.968 92.7556 51.7826 93.3501 51.7554C93.9446 51.7281 94.5456 51.8711 95.1438 52.1896C95.742 52.508 96.1873 52.912 96.4772 53.4067C96.7643 53.9 96.9132 54.4264 96.9157 54.9884C96.9183 55.5505 96.7809 56.0981 96.4985 56.6286C96.4556 56.7092 96.4099 56.7951 96.3549 56.8859C96.2998 56.9767 96.2406 57.0754 96.1732 57.183L91.1628 54.5291L91.6182 53.6736L95.4335 55.6946C95.676 55.1762 95.7166 54.6905 95.5514 54.2388C95.3862 53.7871 95.0679 53.4341 94.6004 53.1852C94.2686 53.0086 93.9255 52.9227 93.5697 52.9235C93.2139 52.9244 92.8782 53.026 92.5627 53.2219C92.2459 53.4203 91.9712 53.7347 91.7414 54.1664L91.5615 54.5044C91.322 54.9543 91.2061 55.3799 91.2073 55.7743C91.2097 56.1728 91.306 56.521 91.4998 56.8245C91.691 57.1265 91.9499 57.3644 92.2738 57.5368C92.663 57.744 93.0274 57.8279 93.3681 57.7923C93.7089 57.7568 94.0162 57.6267 94.29 57.402L95.5046 58.0486C95.205 58.3596 94.8501 58.5979 94.4429 58.7583C94.0357 58.9187 93.6043 58.986 93.146 58.959C92.6877 58.932 92.2188 58.7925 91.7408 58.538L91.75 58.5396Z" fill="#2C1C12" fill-opacity="0.9"/>
<path d="M100.741 64.0826C100.394 63.8278 100.134 63.5489 99.9542 63.2498C99.7748 62.9508 99.7126 62.6206 99.7608 62.2591C99.8091 61.8977 99.9971 61.5005 100.321 61.0621L102.42 58.2213L101.457 57.5117L102.144 56.5793L103.107 57.289L104.261 56.004L105.236 56.7232L104.215 58.1055L105.799 59.2727L105.112 60.205L103.527 59.0378L101.419 61.8902C101.185 62.2031 101.094 62.4684 101.144 62.6782C101.191 62.8905 101.381 63.1147 101.705 63.3544L102.349 63.8271L101.659 64.758L100.739 64.0812L100.741 64.0826Z" fill="#2C1C12" fill-opacity="0.9"/>
<path d="M102.622 65.4822L109.261 58.2434L110.276 59.1708L107.528 62.1667C107.968 62.027 108.415 62.0115 108.871 62.1176C109.326 62.2264 109.737 62.4447 110.102 62.7792C110.508 63.1491 110.78 63.551 110.924 63.981C111.063 64.4122 111.063 64.8594 110.921 65.3277C110.779 65.7961 110.484 66.2735 110.034 66.7612L107.294 69.7481L106.288 68.8288L108.925 65.9539C109.362 65.4791 109.589 65.0262 109.611 64.5941C109.632 64.1647 109.442 63.7663 109.043 63.4006C108.773 63.1531 108.471 62.9958 108.137 62.9247C107.802 62.8535 107.459 62.8811 107.106 63.0099C106.754 63.1362 106.416 63.3736 106.096 63.7237L103.634 66.4082L102.619 65.4808L102.622 65.4822Z" fill="#2C1C12" fill-opacity="0.9"/>
<path d="M110.105 73.215C109.68 72.7088 109.417 72.1647 109.32 71.5789C109.22 70.9918 109.284 70.4184 109.51 69.8547C109.736 69.291 110.123 68.7792 110.666 68.3245C111.226 67.8583 111.806 67.5628 112.407 67.4354C113.006 67.3106 113.591 67.3451 114.155 67.5452C114.721 67.7427 115.22 68.102 115.657 68.6218C116.095 69.1416 116.353 69.6829 116.435 70.2471C116.517 70.8113 116.452 71.3544 116.244 71.8777C116.036 72.401 115.699 72.8521 115.238 73.2379C115.167 73.2967 115.091 73.3566 115.011 73.4204C114.927 73.4827 114.833 73.5527 114.729 73.6277L111.084 69.2909L111.827 68.6688L114.607 71.9741C115.029 71.5846 115.25 71.1513 115.268 70.6703C115.286 70.1893 115.123 69.7456 114.783 69.3379C114.542 69.049 114.257 68.8407 113.927 68.7117C113.598 68.58 113.247 68.5467 112.878 68.6105C112.508 68.6742 112.136 68.8633 111.759 69.1761L111.464 69.4201C111.073 69.7457 110.804 70.0933 110.655 70.4612C110.507 70.8291 110.465 71.1907 110.529 71.5421C110.594 71.8934 110.744 72.2102 110.979 72.4923C111.262 72.8298 111.569 73.0466 111.897 73.1414C112.226 73.2361 112.56 73.2307 112.901 73.1253L113.786 74.1771C113.388 74.3522 112.969 74.4397 112.533 74.4344C112.097 74.429 111.668 74.3276 111.256 74.1317C110.841 73.9343 110.461 73.6285 110.111 73.2152L110.105 73.215Z" fill="#2C1C12" fill-opacity="0.9"/>
<path d="M116.128 82.1068C115.811 81.5177 115.665 80.9227 115.685 80.3191C115.707 79.7168 115.885 79.1571 116.218 78.6438C116.552 78.1306 117.033 77.7057 117.66 77.372C118.296 77.0332 118.923 76.8696 119.541 76.8786C120.16 76.8876 120.728 77.0495 121.244 77.3644C121.759 77.6819 122.178 78.1352 122.492 78.7229C122.891 79.466 123.033 80.1888 122.915 80.894C122.798 81.5991 122.447 82.1964 121.862 82.683L121.185 81.4245C121.495 81.1559 121.671 80.8257 121.709 80.4389C121.749 80.0495 121.663 79.6567 121.45 79.263C121.277 78.9404 121.034 78.6844 120.721 78.4978C120.408 78.3111 120.048 78.2195 119.643 78.2243C119.236 78.2276 118.8 78.3529 118.335 78.6027C117.99 78.7859 117.708 78.9998 117.491 79.2379C117.272 79.4786 117.116 79.7289 117.022 79.9929C116.926 80.2554 116.89 80.5235 116.916 80.7907C116.941 81.0579 117.017 81.3119 117.146 81.5542C117.289 81.8206 117.462 82.039 117.66 82.208C117.858 82.377 118.083 82.49 118.333 82.5496C118.583 82.6092 118.837 82.6043 119.1 82.5376L119.778 83.7961C119.062 84.0021 118.375 83.957 117.717 83.6633C117.058 83.3696 116.53 82.8512 116.129 82.1108L116.128 82.1068Z" fill="#2C1C12" fill-opacity="0.9"/>
<path d="M118.909 88.3328C118.732 87.8214 118.681 87.3438 118.758 86.8974C118.835 86.451 119.042 86.0543 119.389 85.7116C119.736 85.3688 120.219 85.0852 120.848 84.8729L124.714 83.5499L125.163 84.847L121.44 86.1225C120.828 86.334 120.412 86.6234 120.196 86.9987C119.979 87.374 119.958 87.8101 120.13 88.3121C120.247 88.6477 120.434 88.9246 120.694 89.1427C120.953 89.3609 121.262 89.492 121.629 89.5403C121.994 89.5912 122.399 89.5363 122.848 89.385L126.325 88.1925L126.775 89.4896L120.26 91.7217L119.858 90.567L120.938 90.0939C120.473 90.0298 120.061 89.847 119.706 89.5445C119.35 89.2419 119.086 88.8376 118.91 88.3368L118.909 88.3328Z" fill="#2C1C12" fill-opacity="0.9"/>
<path d="M120.527 93.1721L130.148 91.0882L130.444 92.4273L120.823 94.5112L120.527 93.1721Z" fill="#2C1C12" fill-opacity="0.9"/>
<path d="M121.489 98.8282C121.434 98.402 121.457 98.02 121.553 97.6876C121.651 97.3525 121.845 97.0822 122.139 96.8712C122.432 96.6602 122.855 96.5214 123.396 96.4557L126.911 96.0307L126.763 94.8473L127.917 94.7074L128.065 95.8907L129.797 95.8484L129.947 97.0463L128.235 97.2528L128.479 99.1987L127.325 99.3386L127.081 97.3928L123.551 97.82C123.161 97.8661 122.906 97.9805 122.787 98.1606C122.667 98.3407 122.632 98.6326 122.683 99.0297L122.782 99.8199L121.628 99.9599L121.485 98.8294L121.489 98.8282Z" fill="#2C1C12" fill-opacity="0.9"/>
<path d="M121.537 103.593C121.549 103.053 121.669 102.589 121.898 102.197C122.127 101.805 122.462 101.509 122.906 101.305C123.348 101.104 123.905 101.009 124.568 101.029L128.66 101.138L128.628 102.509L124.687 102.404C124.04 102.386 123.549 102.515 123.212 102.79C122.877 103.065 122.703 103.467 122.69 103.997C122.681 104.353 122.759 104.678 122.928 104.972C123.095 105.264 123.339 105.497 123.666 105.671C123.989 105.844 124.389 105.936 124.865 105.949L128.544 106.049L128.511 107.42L121.617 107.234L121.646 106.014L122.823 105.95C122.408 105.729 122.086 105.414 121.857 105.006C121.629 104.597 121.524 104.127 121.534 103.599L121.537 103.593Z" fill="#2C1C12" fill-opacity="0.9"/>
<path d="M121.38 108.637L128.182 109.802L127.978 111.018L126.676 110.919C126.955 111.124 127.181 111.368 127.352 111.646C127.521 111.926 127.639 112.239 127.701 112.589C127.763 112.939 127.759 113.324 127.684 113.748L126.252 113.503L126.334 113.016C126.381 112.738 126.393 112.464 126.369 112.201C126.345 111.937 126.266 111.695 126.136 111.473C126.007 111.25 125.812 111.063 125.552 110.908C125.292 110.753 124.954 110.64 124.54 110.566L121.153 109.984L121.379 108.633L121.38 108.637Z" fill="#2C1C12" fill-opacity="0.9"/>
<path d="M119.543 116.085C119.736 115.457 120.054 114.942 120.493 114.545C120.934 114.146 121.452 113.891 122.049 113.775C122.647 113.66 123.289 113.708 123.97 113.92C124.666 114.137 125.234 114.463 125.668 114.9C126.102 115.338 126.389 115.845 126.53 116.424C126.671 117.003 126.64 117.614 126.44 118.262C126.241 118.907 125.926 119.416 125.495 119.791C125.065 120.163 124.573 120.402 124.018 120.507C123.462 120.612 122.899 120.575 122.324 120.396C122.237 120.37 122.144 120.337 122.045 120.301C121.947 120.265 121.838 120.224 121.719 120.177L123.386 114.784L124.315 115.075L123.043 119.183C123.6 119.326 124.085 119.278 124.502 119.036C124.917 118.793 125.203 118.418 125.36 117.91C125.47 117.552 125.49 117.199 125.423 116.853C125.356 116.507 125.19 116.195 124.937 115.92C124.682 115.644 124.321 115.435 123.849 115.287L123.484 115.173C122.996 115.02 122.556 114.983 122.166 115.055C121.774 115.13 121.449 115.288 121.188 115.533C120.927 115.777 120.74 116.072 120.634 116.422C120.505 116.841 120.491 117.214 120.587 117.542C120.688 117.87 120.872 118.148 121.145 118.377L120.74 119.686C120.374 119.448 120.073 119.144 119.841 118.774C119.605 118.405 119.459 117.993 119.4 117.538C119.34 117.082 119.389 116.601 119.547 116.084L119.543 116.085Z" fill="#2C1C12" fill-opacity="0.9"/>
</g>
<defs>
<clipPath id="clip0_968_646">
<rect width="154.052" height="77.0259" fill="white" transform="translate(36.1943) rotate(28.0278)"/>
</clipPath>
</defs>
</svg>
