<svg width="201" height="126" viewBox="0 0 201 126" fill="none" xmlns="http://www.w3.org/2000/svg">
<g clip-path="url(#clip0_968_672)">
<path fill-rule="evenodd" clip-rule="evenodd" d="M199.214 84.2198C200.598 89.2621 197.11 94.1711 191.986 95.0468L158.355 100.795C153.231 101.671 148.462 98.1291 146.447 93.3049C139.19 75.9279 120.761 65.1991 101.508 68.4899C82.2547 71.7807 68.4388 88.017 67.3619 106.822C67.0635 112.042 63.7419 116.966 58.6181 117.842L24.9905 123.59C19.8667 124.465 14.9493 120.993 14.5765 115.778C11.1671 67.8189 44.4275 24.2195 92.5394 15.9962C140.651 7.77294 186.505 37.8502 199.214 84.2198Z" fill="#F36025"/>
<path d="M45.079 105.65L33.4143 105.392L33.4477 103.707L43.7959 103.933L43.9017 98.548L45.2177 98.5765L45.0784 105.646L45.079 105.65Z" fill="#2C1C12" fill-opacity="0.9"/>
<path d="M46.1296 93.8916C45.9958 94.6896 45.6985 95.3649 45.2314 95.9223C44.7678 96.4791 44.182 96.8768 43.4777 97.1147C42.7734 97.3526 41.9923 97.398 41.1386 97.2537C40.2618 97.1023 39.5269 96.7981 38.9333 96.3375C38.3396 95.8769 37.9099 95.3075 37.6472 94.6251C37.3845 93.9426 37.3221 93.1929 37.4558 92.3728C37.5931 91.5522 37.8916 90.8841 38.3494 90.3576C38.8078 89.8348 39.3647 89.4604 40.0141 89.2429C40.6635 89.0254 41.3528 88.9773 42.075 89.1C42.184 89.1181 42.3013 89.1422 42.4263 89.1686C42.5513 89.1949 42.6882 89.2267 42.8411 89.2666L41.698 96.1038L40.5316 95.9027L41.4047 90.6913C40.7076 90.6085 40.1289 90.7478 39.6691 91.1129C39.2092 91.478 38.9229 91.9825 38.8167 92.6215C38.7409 93.0753 38.7744 93.5067 38.9145 93.9199C39.0539 94.3295 39.3007 94.6841 39.6502 94.977C39.9998 95.2699 40.4719 95.4684 41.0661 95.5689L41.5252 95.6484C42.1384 95.753 42.6745 95.7275 43.1337 95.5718C43.5928 95.4162 43.9597 95.1698 44.2379 94.8321C44.5156 94.4907 44.69 94.1009 44.7641 93.6584C44.8525 93.129 44.8106 92.6697 44.6393 92.2875C44.4681 91.9053 44.1966 91.5991 43.8279 91.3646L44.1065 89.7043C44.5877 89.9343 44.9966 90.2538 45.3408 90.6651C45.685 91.0765 45.9271 91.5531 46.0749 92.0972C46.2227 92.6414 46.2405 93.2371 46.1296 93.8916Z" fill="#2C1C12" fill-opacity="0.9"/>
<path d="M48.0118 85.5216C47.8534 86.0262 47.6388 86.4376 47.3623 86.764C47.0851 87.0869 46.7299 87.2946 46.2946 87.3763C45.86 87.4616 45.3241 87.4026 44.6873 87.2029L40.5705 85.8934L40.1337 87.2906L38.7819 86.8604L39.2188 85.4632L37.2767 84.6344L37.7181 83.2217L39.7226 83.86L40.4408 81.5662L41.7925 81.9964L41.0749 84.2937L45.2107 85.6073C45.6667 85.7534 46.0064 85.7541 46.2306 85.613C46.4548 85.4718 46.6403 85.1682 46.7894 84.6946L47.0795 83.7634L48.4312 84.1936L48.0159 85.5245L48.0118 85.5216Z" fill="#2C1C12" fill-opacity="0.9"/>
<path d="M39.0718 76.3126L42.1236 79.3176L41.6704 80.4052L38.3678 78.0052L39.0718 76.3126Z" fill="#2C1C12" fill-opacity="0.9"/>
<path d="M51.3661 78.1819C51.0367 78.8186 50.648 79.3222 50.1923 79.6903C49.7366 80.0584 49.253 80.2843 48.7344 80.3693C48.2151 80.4507 47.6898 80.3899 47.1548 80.1874L47.939 78.6648C48.1999 78.7378 48.4693 78.7542 48.7402 78.7152C49.011 78.6763 49.2721 78.5582 49.5203 78.3651C49.7685 78.1721 49.9855 77.9036 50.1631 77.5536C50.3331 77.2233 50.4251 76.9284 50.4421 76.6647C50.4591 76.401 50.41 76.1779 50.302 75.9943C50.1903 75.8114 50.0416 75.6678 49.8535 75.5714C49.577 75.4276 49.3323 75.385 49.1195 75.4434C48.9067 75.5018 48.6896 75.6418 48.4717 75.8627C48.2503 76.0842 48.0126 76.3599 47.7514 76.6911C47.5133 77.0073 47.2567 77.301 46.9888 77.5709C46.7173 77.8413 46.4373 78.0619 46.1487 78.2324C45.8601 78.403 45.5552 78.4992 45.2381 78.524C44.9203 78.5452 44.5813 78.4636 44.2282 78.2778C43.8033 78.0565 43.4826 77.7403 43.2598 77.3339C43.0369 76.9275 42.9393 76.463 42.9662 75.9367C42.9937 75.4141 43.1549 74.8612 43.4509 74.2853C43.8817 73.4512 44.4269 72.8805 45.0841 72.5808C45.7414 72.2811 46.4522 72.2735 47.2173 72.5615L46.4711 74.0078C46.1153 73.8703 45.7786 73.8874 45.4627 74.048C45.1475 74.212 44.8767 74.5081 44.6575 74.935C44.4348 75.3625 44.3526 75.7365 44.3992 76.0518C44.4499 76.3701 44.6133 76.5993 44.8863 76.7437C45.0626 76.8348 45.2556 76.8532 45.4578 76.7966C45.6634 76.7394 45.8782 76.6072 46.1027 76.4035C46.3272 76.1998 46.5738 75.9336 46.8427 75.6048C47.2143 75.1298 47.5828 74.7215 47.9445 74.3805C48.3097 74.0389 48.6999 73.8216 49.1137 73.7215C49.5275 73.6214 50.0033 73.7127 50.5327 73.9896C51.0032 74.2214 51.3488 74.5554 51.5789 74.9826C51.8095 75.4134 51.9073 75.9 51.8763 76.4453C51.8454 76.9906 51.6737 77.5673 51.3578 78.176L51.3661 78.1819Z" fill="#2C1C12" fill-opacity="0.9"/>
<path d="M58.3637 67.8853C57.8306 68.5054 57.2172 68.9335 56.5205 69.1738C55.8239 69.4141 55.1079 69.4557 54.3761 69.2979C53.6414 69.1443 52.947 68.778 52.2912 68.2105C51.6265 67.6335 51.1622 66.9892 50.8981 66.2776C50.6341 65.566 50.5694 64.846 50.7042 64.1176C50.839 63.3893 51.1694 62.7156 51.7026 62.0955C52.3728 61.3161 53.1345 60.8369 53.9918 60.661C54.8492 60.485 55.6839 60.6252 56.496 61.0815L55.3597 62.4035C54.9175 62.1669 54.4662 62.1117 54.0052 62.2346C53.5441 62.3575 53.1341 62.6296 52.7781 63.0468C52.4857 63.387 52.3036 63.7745 52.2289 64.2134C52.1542 64.6523 52.2091 65.1021 52.3902 65.5634C52.5713 66.0247 52.9104 66.47 53.3955 66.894C53.7558 67.2071 54.124 67.4381 54.4917 67.5809C54.8629 67.7232 55.2184 67.7947 55.5605 67.7877C55.9032 67.7842 56.2225 67.7076 56.5153 67.562C56.8081 67.4165 57.0664 67.218 57.2823 66.9644C57.523 66.6845 57.6961 66.3941 57.8017 66.0931C57.9073 65.7922 57.9389 65.4856 57.8965 65.1733C57.8547 64.8645 57.7354 64.5726 57.5428 64.3006L58.6791 62.9786C59.2273 63.7078 59.4818 64.5129 59.4354 65.3951C59.3925 66.2768 59.0339 67.1058 58.3643 67.8889L58.3637 67.8853Z" fill="#2C1C12" fill-opacity="0.9"/>
<path d="M61.746 63.8513L54.0414 54.5847L55.3251 53.5057L58.5148 57.3394C58.4161 56.7832 58.4655 56.2384 58.6693 55.7003C58.8702 55.1663 59.204 54.7052 59.6673 54.3174C60.1812 53.8843 60.7097 53.6213 61.2513 53.5214C61.793 53.4215 62.3356 53.4977 62.879 53.7501C63.4225 54.0025 63.9539 54.4407 64.4738 55.0682L67.6505 58.8894L66.3792 59.9553L63.3175 56.2724C62.8118 55.6645 62.2986 55.3114 61.7814 55.2124C61.2642 55.1135 60.7554 55.2776 60.2473 55.7024C59.9055 55.9886 59.6645 56.331 59.5268 56.7219C59.3897 57.1164 59.3664 57.5354 59.4652 57.9851C59.5639 58.4348 59.7977 58.8834 60.1699 59.3304L63.0249 62.7657L61.7413 63.8447L61.746 63.8513Z" fill="#2C1C12" fill-opacity="0.9"/>
<path d="M71.4351 56.7167C70.8432 57.0787 70.2932 57.2792 69.7814 57.3189C69.2696 57.3586 68.8157 57.2672 68.4198 57.0447C68.0239 56.8222 67.7051 56.5167 67.4663 56.124C67.1768 55.6481 67.0536 55.1623 67.0943 54.6741C67.1344 54.1823 67.3309 53.7079 67.6754 53.2449C68.0241 52.7849 68.5132 52.356 69.1516 51.9677L71.0227 50.8214C70.7684 50.402 70.4928 50.0927 70.2023 49.8889C69.9118 49.6851 69.6006 49.595 69.2734 49.6032C68.9467 49.6149 68.5981 49.7333 68.2246 49.9625C67.795 50.2269 67.493 50.554 67.3115 50.9451C67.13 51.3361 67.125 51.7557 67.2931 52.2046L65.8651 53.0805C65.6155 52.539 65.5276 52.003 65.6 51.4653C65.6731 50.9312 65.8782 50.4223 66.2167 49.9456C66.5553 49.469 66.9806 49.073 67.4928 48.7577C68.1672 48.3449 68.8071 48.1143 69.41 48.0737C70.013 48.0331 70.5599 48.1563 71.0586 48.4458C71.5572 48.7353 71.9881 49.1833 72.3534 49.7821L75.0704 54.2475L73.8277 55.011L72.9743 53.8638C72.9851 54.1191 72.9704 54.375 72.9344 54.6347C72.8949 54.8949 72.8175 55.1469 72.6979 55.3878C72.579 55.6322 72.4145 55.866 72.2049 56.0928C71.9954 56.3197 71.7383 56.5253 71.4345 56.7131L71.4351 56.7167ZM71.0004 55.3914C71.3043 55.2035 71.5428 54.9754 71.7142 54.6963C71.8863 54.4208 71.9954 54.1192 72.0394 53.7995C72.0863 53.4755 72.071 53.1512 71.9971 52.8259C71.9226 52.497 71.8003 52.1872 71.6372 51.8955L71.6116 51.8522L69.9128 52.8956C69.5033 53.1492 69.2027 53.399 69.0128 53.6555C68.8229 53.9121 68.7224 54.157 68.713 54.4011C68.7029 54.6416 68.7687 54.8765 68.9066 55.1064C69.0534 55.3458 69.2283 55.5143 69.4389 55.6142C69.6495 55.7141 69.8888 55.7467 70.1574 55.7155C70.4253 55.6807 70.7065 55.5738 71.001 55.3949L71.0004 55.3914Z" fill="#2C1C12" fill-opacity="0.9"/>
<path d="M76.4995 53.5029L73.1307 45.7581L74.5097 45.1514L75.1779 46.4331C75.223 45.8634 75.4121 45.3462 75.7412 44.8785C76.0739 44.4102 76.5307 44.0492 77.1148 43.7914C77.7261 43.5217 78.3068 43.4151 78.8563 43.4681C79.4023 43.5217 79.9078 43.7439 80.3685 44.1317C80.8298 44.523 81.2227 45.0914 81.5473 45.8367L83.5387 50.4152L82.0067 51.0885L80.0819 46.664C79.7692 45.9459 79.3744 45.4734 78.8967 45.2428C78.4191 45.0122 77.8782 45.0312 77.277 45.2956C76.8795 45.4701 76.5612 45.7228 76.3284 46.0491C76.0927 46.3796 75.9621 46.7693 75.9331 47.2188C75.9046 47.6718 76.0065 48.1613 76.2365 48.6951L78.035 52.829L76.5031 53.5023L76.4995 53.5029Z" fill="#2C1C12" fill-opacity="0.9"/>
<path d="M89.4471 52.6567C88.7101 52.8745 88.0287 52.9689 87.4047 52.9507C86.7802 52.9289 86.2603 52.7716 85.8373 52.4765C85.4144 52.1815 85.1222 51.7539 84.9578 51.1979C84.8752 50.9071 84.8547 50.5947 84.8932 50.2648C84.9348 49.9308 85.0626 49.5893 85.2728 49.2375C85.4829 48.8856 85.8054 48.5293 86.2333 48.1696L87.3455 48.6297C86.8596 48.992 86.5619 49.3441 86.4594 49.6849C86.3528 50.0227 86.3425 50.3257 86.4179 50.5957C86.5131 50.9174 86.6853 51.1561 86.9424 51.3142C87.196 51.4729 87.5095 51.5552 87.8801 51.5653C88.2501 51.5719 88.6458 51.5153 89.0772 51.3901C89.4945 51.2674 89.8423 51.1014 90.117 50.8928C90.3918 50.6842 90.5847 50.4455 90.6964 50.1803C90.8046 49.9157 90.8156 49.6383 90.733 49.3475C90.6342 49.0044 90.4199 48.7545 90.0977 48.6002C89.7719 48.4464 89.2398 48.4529 88.502 48.6231C87.8788 48.759 87.343 48.8506 86.8982 48.8972C86.4533 48.9439 86.0692 48.9618 85.7406 48.9408C85.4156 48.9192 85.1342 48.8754 84.8988 48.8018C84.6641 48.7317 84.4559 48.6461 84.2749 48.5484L84.1676 48.1774L85.2903 46.0495L86.723 46.1206L85.4454 48.2602L85.5714 47.4378C85.7095 47.4767 85.8441 47.5161 85.9715 47.5568C86.099 47.5975 86.2624 47.6136 86.4595 47.613C86.6566 47.6124 86.9193 47.5895 87.2399 47.5421C87.564 47.494 87.9815 47.4153 88.4971 47.3125C89.2403 47.1524 89.8646 47.1081 90.3669 47.1839C90.8692 47.2597 91.2756 47.4364 91.5795 47.7187C91.8834 48.0011 92.1049 48.3783 92.2405 48.8511C92.3742 49.3131 92.3755 49.7905 92.2477 50.2825C92.1165 50.7751 91.8258 51.2326 91.3757 51.6548C90.9221 52.0777 90.2781 52.4118 89.4435 52.6573L89.4471 52.6567ZM87.6344 46.4313C86.9494 46.6329 86.3316 46.6724 85.7788 46.5575C85.2254 46.439 84.7607 46.1988 84.38 45.8304C83.9999 45.4656 83.7324 45.0117 83.5752 44.4765C83.4162 43.9306 83.3987 43.401 83.524 42.8946C83.6492 42.3883 83.9145 41.9316 84.3202 41.5279C84.726 41.1243 85.2661 40.8226 85.941 40.6264C86.616 40.4302 87.2302 40.3914 87.7842 40.5134C88.3383 40.6354 88.8036 40.8792 89.183 41.2404C89.5625 41.6017 89.83 42.0556 89.989 42.6015C90.1462 43.1367 90.1631 43.6628 90.0391 44.1762C89.915 44.6897 89.6533 45.1458 89.2499 45.5417C88.8465 45.9376 88.3093 46.2352 87.635 46.4349L87.6344 46.4313ZM87.2573 45.1439C87.7827 44.9917 88.1614 44.7286 88.3916 44.366C88.6211 43.9998 88.6621 43.5556 88.5067 43.0312C88.3549 42.5061 88.0826 42.1522 87.6934 41.9689C87.3006 41.7863 86.8454 41.7723 86.3199 41.9245C85.7945 42.0768 85.4123 42.3405 85.1715 42.7049C84.9312 43.0729 84.8867 43.5177 85.0392 44.0463C85.191 44.5714 85.4704 44.924 85.8703 45.1055C86.2701 45.2869 86.736 45.2992 87.2609 45.1433L87.2573 45.1439ZM87.6837 41.6988L86.9273 40.5423L90.2524 39.5699L90.5771 40.6789L87.6843 41.7023L87.6837 41.6988Z" fill="#2C1C12" fill-opacity="0.9"/>
<path d="M97.2638 47.0682C96.4726 47.2034 95.7359 47.1456 95.0598 46.8865C94.3802 46.628 93.8116 46.2072 93.3529 45.617C92.8941 45.0268 92.5915 44.3034 92.4409 43.4439C92.2902 42.5623 92.3294 41.7658 92.5613 41.0502C92.7933 40.3346 93.188 39.7382 93.739 39.2656C94.29 38.793 94.9745 38.4814 95.7871 38.3425C96.5996 38.2036 97.3291 38.2626 97.9768 38.5266C98.6246 38.7906 99.1569 39.1918 99.5788 39.7369C100.001 40.2819 100.277 40.9179 100.402 41.646C100.421 41.7567 100.441 41.8745 100.456 42.0042C100.474 42.1333 100.487 42.2743 100.503 42.4296L93.7066 43.6059L93.5059 42.4316L98.6811 41.536C98.5273 40.8497 98.2039 40.3466 97.7081 40.0309C97.2122 39.7152 96.6429 39.6105 96.0077 39.7191C95.5571 39.7961 95.1632 39.97 94.8218 40.2377C94.484 40.5048 94.2337 40.8562 94.0766 41.2834C93.9202 41.7143 93.8908 42.2262 93.9921 42.8187L94.0714 43.2827C94.1769 43.9002 94.3831 44.4013 94.6786 44.7843C94.9783 45.1702 95.3307 45.4369 95.7434 45.5868C96.1526 45.7373 96.5789 45.7746 97.0189 45.6994C97.5476 45.609 97.9604 45.4172 98.2614 45.127C98.5624 44.8368 98.7606 44.4796 98.8561 44.0556L100.506 43.7735C100.45 44.3011 100.287 44.7992 100.015 45.2607C99.7436 45.7223 99.3792 46.1115 98.9185 46.429C98.4579 46.7465 97.9031 46.9626 97.2538 47.0736L97.2638 47.0682Z" fill="#2C1C12" fill-opacity="0.9"/>
<path d="M110.041 45.7158C109.517 45.7282 109.055 45.6529 108.663 45.4958C108.267 45.3358 107.961 45.0647 107.738 44.6768C107.515 44.2888 107.399 43.7613 107.383 43.0917L107.28 38.7524L105.825 38.7844L105.79 37.3614L107.245 37.3294L107.395 35.2136L108.869 35.1821L108.919 37.2932L111.313 37.2403L111.345 38.6639L108.951 38.7168L109.053 43.0745C109.065 43.5536 109.172 43.8806 109.376 44.0478C109.581 44.2186 109.93 44.2948 110.421 44.2844L111.392 44.2616L111.423 45.6852L110.034 45.717L110.041 45.7158Z" fill="#2C1C12" fill-opacity="0.9"/>
<path d="M112.893 45.6698L113.873 33.6442L115.54 33.7853L115.135 38.7625C115.453 38.2966 115.872 37.9459 116.389 37.7068C116.908 37.4712 117.465 37.376 118.066 37.4277C118.732 37.4827 119.294 37.6696 119.749 37.9812C120.204 38.2964 120.538 38.7316 120.751 39.294C120.964 39.8564 121.037 40.5418 120.968 41.3545L120.564 46.3168L118.911 46.1768L119.3 41.4009C119.366 40.6108 119.246 39.9993 118.945 39.5622C118.645 39.1287 118.165 38.8838 117.509 38.827C117.064 38.7891 116.656 38.8624 116.282 39.0439C115.908 39.2255 115.602 39.5092 115.355 39.9004C115.11 40.2875 114.963 40.7718 114.916 41.3529L114.554 45.8121L112.886 45.671L112.893 45.6698Z" fill="#2C1C12" fill-opacity="0.9"/>
<path d="M125.855 47.579C125.07 47.4047 124.41 47.0729 123.88 46.5758C123.346 46.0794 122.979 45.4734 122.776 44.7551C122.573 44.0367 122.562 43.2487 122.746 42.3982C122.932 41.525 123.269 40.8026 123.755 40.2272C124.238 39.6561 124.826 39.2507 125.518 39.0223C126.208 38.7904 126.956 38.7654 127.765 38.9432C128.573 39.1209 129.225 39.454 129.725 39.9416C130.224 40.4293 130.568 41.0061 130.758 41.6715C130.945 42.3376 130.961 43.0292 130.807 43.7498C130.782 43.8606 130.754 43.9756 130.724 44.0983C130.69 44.2216 130.652 44.3604 130.608 44.5111L123.868 43.0255L124.119 41.8623L129.257 42.9935C129.372 42.2979 129.26 41.7108 128.919 41.2292C128.577 40.7476 128.089 40.4379 127.455 40.2964C127.007 40.1967 126.578 40.2076 126.165 40.3297C125.75 40.4483 125.388 40.6792 125.081 41.0182C124.774 41.3573 124.557 41.8204 124.427 42.4083L124.327 42.8663C124.194 43.4768 124.195 44.0167 124.326 44.4865C124.457 44.9563 124.687 45.3394 125.011 45.633C125.335 45.9266 125.716 46.1224 126.153 46.2204C126.676 46.3366 127.133 46.3173 127.52 46.1631C127.906 46.0089 128.224 45.7526 128.473 45.394L130.108 45.7537C129.856 46.2229 129.519 46.6222 129.096 46.9444C128.672 47.2665 128.185 47.4895 127.642 47.6079C127.097 47.7268 126.503 47.7144 125.858 47.5748L125.855 47.579Z" fill="#2C1C12" fill-opacity="0.9"/>
<path d="M138.28 51.7107C137.536 51.375 136.951 50.9055 136.52 50.3033C136.092 49.7005 135.845 49.0228 135.782 48.273C135.72 47.5233 135.865 46.7491 136.218 45.9539C136.577 45.1469 137.058 44.5174 137.659 44.062C138.26 43.6065 138.927 43.3384 139.658 43.2575C140.39 43.1801 141.127 43.3076 141.871 43.6433C142.809 44.067 143.485 44.6643 143.898 45.4385C144.312 46.2127 144.42 47.0576 144.221 47.9694L142.631 47.2531C142.729 46.7588 142.651 46.3055 142.399 45.9004C142.147 45.4917 141.771 45.1738 141.273 44.9504C140.865 44.7666 140.441 44.6995 140.001 44.7527C139.561 44.8059 139.146 44.987 138.761 45.2953C138.372 45.6043 138.047 46.0529 137.786 46.6447C137.591 47.0822 137.48 47.5016 137.449 47.8963C137.418 48.2946 137.458 48.6552 137.561 48.9828C137.665 49.3104 137.831 49.598 138.055 49.8389C138.278 50.0799 138.541 50.2701 138.846 50.409C139.182 50.5609 139.511 50.6444 139.827 50.66C140.144 50.6757 140.445 50.617 140.729 50.4875C141.014 50.358 141.254 50.1627 141.458 49.9001L143.048 50.6164C142.514 51.3544 141.82 51.8256 140.968 52.0337C140.116 52.2417 139.221 52.1339 138.284 51.7137L138.28 51.7107Z" fill="#2C1C12" fill-opacity="0.9"/>
<path d="M145.599 55.6878C145.048 55.3229 144.642 54.8963 144.383 54.4043C144.124 53.9123 144.027 53.3703 144.105 52.7767C144.179 52.1836 144.435 51.5448 144.881 50.866L147.609 46.6784L149.009 47.6037L146.383 51.638C145.952 52.303 145.772 52.8958 145.841 53.4241C145.913 53.9518 146.218 54.3919 146.758 54.7515C147.12 54.9908 147.507 55.1193 147.919 55.137C148.328 55.1554 148.726 55.0505 149.114 54.8225C149.503 54.5981 149.851 54.241 150.17 53.7567L152.623 49.9873L154.023 50.9125L149.426 57.9725L148.179 57.1497L148.864 55.8792C148.369 56.1659 147.836 56.2973 147.269 56.2694C146.702 56.2414 146.143 56.0468 145.604 55.6908L145.599 55.6878Z" fill="#2C1C12" fill-opacity="0.9"/>
<path d="M150.767 59.183L158.459 49.9371L159.743 51.018L152.047 60.2645L150.763 59.1836L150.767 59.183Z" fill="#2C1C12" fill-opacity="0.9"/>
<path d="M155.911 63.964C155.54 63.5902 155.276 63.2018 155.121 62.8059C154.965 62.4064 154.95 61.9975 155.074 61.5722C155.203 61.1462 155.502 60.6947 155.973 60.2247L159.037 57.1735L158.012 56.1328L159.017 55.1309L160.042 56.1716L161.675 54.8308L162.714 55.884L161.222 57.3696L162.909 59.0796L161.905 60.0815L160.217 58.3715L157.144 61.4352C156.803 61.7726 156.643 62.0755 156.663 62.3403C156.683 62.6051 156.864 62.9158 157.212 63.2641L157.896 63.9589L156.892 64.9608L155.911 63.9676L155.911 63.964Z" fill="#2C1C12" fill-opacity="0.9"/>
<path d="M159.512 68.5657C159.121 68.0301 158.89 67.4892 158.817 66.9359C158.745 66.3826 158.846 65.8436 159.117 65.3125C159.392 64.7842 159.856 64.2751 160.509 63.7962L164.523 60.8325L165.515 62.1911L161.65 65.0449C161.014 65.5136 160.638 66.0076 160.522 66.527C160.407 67.0463 160.54 67.5673 160.922 68.0934C161.179 68.4462 161.497 68.7041 161.875 68.8636C162.253 69.0231 162.662 69.067 163.106 68.9912C163.549 68.9154 163.999 68.7062 164.466 68.3619L168.079 65.6982L169.071 67.0569L162.306 72.0483L161.424 70.8399L162.508 69.8942C161.943 69.9907 161.399 69.9257 160.875 69.6994C160.35 69.4731 159.895 69.0955 159.514 68.5729L159.512 68.5657Z" fill="#2C1C12" fill-opacity="0.9"/>
<path d="M163.125 73.5889L170.532 69.6192L171.242 70.9561L169.917 71.8364C170.339 71.8268 170.738 71.8945 171.109 72.0368C171.48 72.1791 171.828 72.3988 172.149 72.693C172.469 72.9872 172.753 73.3648 173.001 73.8331L171.442 74.6689L171.157 74.1335C170.995 73.8269 170.802 73.5514 170.582 73.3134C170.363 73.0754 170.106 72.8989 169.815 72.7796C169.525 72.6603 169.197 72.6244 168.832 72.6684C168.467 72.7124 168.057 72.856 167.605 73.0949L163.915 75.0702L163.124 73.5853L163.125 73.5889Z" fill="#2C1C12" fill-opacity="0.9"/>
<path d="M166.92 82.2225C166.638 81.4663 166.559 80.7267 166.685 80.0109C166.81 79.2915 167.117 78.6548 167.606 78.0938C168.094 77.5327 168.747 77.098 169.56 76.7936C170.391 76.4827 171.179 76.3736 171.923 76.4742C172.667 76.5748 173.321 76.8525 173.888 77.3102C174.456 77.7679 174.883 78.3855 175.177 79.1655C175.467 79.9425 175.545 80.6749 175.407 81.3634C175.272 82.0477 174.976 82.6492 174.521 83.1679C174.065 83.6866 173.496 84.0741 172.81 84.331C172.707 84.3706 172.593 84.4085 172.472 84.4475C172.351 84.4866 172.215 84.5281 172.066 84.572L169.644 78.0724L170.753 77.6588L172.596 82.6116C173.239 82.3327 173.669 81.9213 173.885 81.3736C174.102 80.8259 174.098 80.2462 173.87 79.6351C173.708 79.2035 173.464 78.8447 173.141 78.5583C172.818 78.2718 172.426 78.0927 171.978 78.015C171.531 77.9373 171.024 78.0055 170.461 78.2157L170.025 78.3783C169.441 78.5957 168.991 78.8893 168.67 79.2528C168.349 79.6199 168.154 80.0169 168.085 80.451C168.017 80.8852 168.057 81.3118 168.217 81.7327C168.405 82.2368 168.67 82.6103 169.008 82.8575C169.349 83.1004 169.733 83.2331 170.167 83.2508L170.755 84.8292C170.225 84.8719 169.709 84.8021 169.21 84.6156C168.708 84.4333 168.26 84.1425 167.863 83.7438C167.467 83.3486 167.154 82.8402 166.92 82.2189L166.92 82.2225Z" fill="#2C1C12" fill-opacity="0.9"/>
</g>
<defs>
<clipPath id="clip0_968_672">
<rect width="187.398" height="94.6751" fill="white" transform="translate(0.182373 31.7876) rotate(-9.69928)"/>
</clipPath>
</defs>
</svg>
