<svg width="50" height="40" viewBox="0 0 50 40" fill="none" xmlns="http://www.w3.org/2000/svg">
<path d="M12.5626 39.043C5.56283 39.043 0.429688 33.5987 0.429688 25.6657C0.429688 11.5107 9.14047 1.39995 22.8288 0V3.57764C15.8291 5.13315 8.51827 11.3551 8.20717 19.7548C16.6069 16.9549 22.8288 22.3992 22.8288 28.6211C22.8288 34.532 18.3179 39.043 12.5626 39.043ZM26.8336 25.6657C26.8336 11.5107 35.5444 1.39995 49.2327 0V3.57764C42.233 5.13315 34.9222 11.3551 34.6111 19.7548C43.0107 16.9549 49.2327 22.3992 49.2327 28.6211C49.2327 34.532 44.7218 39.043 38.9664 39.043C31.9667 39.043 26.8336 33.5987 26.8336 25.6657Z" fill="#F36025"/>
</svg>
